# Blender v2.81 (sub 16) OBJ File: ''
# www.blender.org
o Cube
v 3.769460 -0.500000 1.000000
v 0.500000 -0.500000 1.000000
v 1.000000 1.000000 1.000000
v 0.000000 -1.000000 1.000000
v 1.000000 0.000000 1.000000
v -1.000000 1.000000 1.000000
v -1.000000 -1.000000 1.000000
v 4.269461 -1.000000 1.000000
v 3.269460 -1.000000 1.000000
v 4.269461 0.000000 1.000000
vt 0.375000 0.750000
vt 0.437500 0.812500
vt 0.375000 0.875000
vt 0.500000 0.750000
vt 0.625000 1.000000
vt 0.437500 0.812500
vt 0.375000 0.875000
vt 0.500000 0.750000
vt 0.625000 0.750000
vt 0.375000 1.000000
vn 0.0000 0.0000 1.0000
s off
f 8/1/1 1/2/1 9/3/1
f 5/4/1 6/5/1 2/6/1
f 6/5/1 4/7/1 2/6/1
f 8/1/1 10/8/1 1/2/1
f 5/4/1 3/9/1 6/5/1
f 6/5/1 7/10/1 4/7/1
