# Blender v2.81 (sub 16) OBJ File: ''
# www.blender.org
o Cube
v 1.000000 1.000000 -1.000000
v 1.000000 -1.000000 -1.000000
v 1.000000 1.000000 1.000000
v 1.000000 -1.000000 1.000000
v -1.000000 1.000000 -1.000000
v -1.000000 -1.000000 -1.000000
v -1.000000 1.000000 1.000000
v -1.000000 -1.000000 1.000000
v 0.000000 1.000000 1.000000
v 1.000000 0.501029 0.000000
v -1.000000 1.000000 0.000000
v 0.000000 1.000000 -1.000000
v 0.000000 1.000000 0.000000
v -0.500000 1.000000 1.000000
v 1.000000 0.210311 0.500000
v -1.000000 1.000000 -0.500000
v 0.500000 1.000000 -1.000000
v 0.500000 1.000000 1.000000
v 1.000000 1.000000 -0.500000
v -1.000000 1.000000 0.500000
v -0.500000 1.000000 -1.000000
v 0.000000 1.000000 0.500000
v 0.000000 2.671139 -0.500000
v 0.500000 1.000000 0.000000
v -0.500000 1.000000 0.000000
v -0.500000 1.000000 -0.500000
v 0.500000 1.000000 -0.500000
v 0.500000 1.000000 0.500000
v -0.500000 1.000000 0.500000
v -1.000000 -0.548319 0.000000
v 0.000000 -1.000000 -1.000000
v 0.000000 -1.000000 1.000000
v 1.000000 -0.548319 0.000000
v 0.000000 -0.548319 0.000000
v -1.000000 -1.000000 0.500000
v -0.500000 -1.000000 -1.000000
v 0.500000 -1.000000 1.000000
v 1.000000 -1.000000 -0.500000
v -1.000000 -1.000000 -0.500000
v 0.500000 -1.000000 -1.000000
v -0.500000 -1.000000 1.000000
v 1.000000 -1.000000 0.500000
v 0.000000 -1.000000 0.500000
v 0.000000 -1.000000 -0.500000
v -0.500000 -0.548319 0.000000
v 0.500000 -0.548319 0.000000
v 0.500000 -1.000000 -0.500000
v -0.500000 -1.000000 -0.500000
v -0.500000 -1.000000 0.500000
v 0.500000 -1.000000 0.500000
v -1.000000 -1.000000 0.750000
v -0.750000 -1.000000 -1.000000
v 0.750000 -1.000000 1.000000
v 1.000000 -1.000000 -0.750000
v -1.000000 -1.000000 -0.250000
v 0.250000 -1.000000 -1.000000
v -0.250000 -1.000000 1.000000
v 1.000000 -0.548319 0.250000
v 0.000000 -1.000000 0.750000
v 0.000000 -1.000000 -0.250000
v -0.750000 -0.548319 0.000000
v 0.250000 -0.548319 0.000000
v -1.000000 -0.548319 0.250000
v -0.250000 -1.000000 -1.000000
v 0.250000 -1.000000 1.000000
v 1.000000 -1.000000 -0.250000
v -1.000000 -1.000000 -0.750000
v 0.750000 -1.000000 -1.000000
v -0.750000 -1.000000 1.000000
v 1.000000 -1.000000 0.750000
v 0.000000 -0.548319 0.250000
v 0.000000 -1.000000 -0.750000
v -0.250000 -0.548319 0.000000
v 0.750000 -0.548319 0.000000
v 0.500000 -1.000000 -0.250000
v 0.500000 -1.000000 -0.750000
v 0.250000 -1.000000 -0.500000
v 0.750000 -1.000000 -0.500000
v -0.500000 -1.000000 -0.250000
v -0.500000 -1.000000 -0.750000
v -0.750000 -1.000000 -0.500000
v -0.250000 -1.000000 -0.500000
v -0.500000 -1.000000 0.750000
v -0.500000 -0.548319 0.250000
v -0.750000 -1.000000 0.500000
v -0.250000 -1.000000 0.500000
v 0.500000 -1.000000 0.750000
v 0.500000 -0.548319 0.250000
v 0.250000 -1.000000 0.500000
v 0.750000 -1.000000 0.500000
v 0.750000 -0.548319 0.250000
v 0.250000 -0.548319 0.250000
v 0.250000 -1.000000 0.750000
v -0.250000 -0.548319 0.250000
v -0.750000 -0.548319 0.250000
v -0.750000 -1.000000 0.750000
v -0.250000 -1.000000 -0.750000
v -0.750000 -1.000000 -0.750000
v -0.750000 -1.000000 -0.250000
v 0.750000 -1.000000 -0.750000
v 0.250000 -1.000000 -0.750000
v 0.250000 -1.000000 -0.250000
v 0.750000 -1.000000 -0.250000
v -0.250000 -1.000000 -0.250000
v -0.250000 -1.000000 0.750000
v 0.750000 -1.000000 0.750000
vt 0.875000 0.687500
vt 0.812500 0.750000
vt 0.812500 0.687500
vt 0.625000 0.937500
vt 0.375000 0.968750
vt 0.375000 0.937500
vt 0.375000 0.125000
vt 0.625000 0.250000
vt 0.375000 0.218750
vt 0.375000 0.718750
vt 0.343750 0.750000
vt 0.343750 0.718750
vt 0.625000 0.687500
vt 0.375000 0.750000
vt 0.375000 0.656250
vt 0.625000 0.437500
vt 0.375000 0.468750
vt 0.375000 0.437500
vt 0.750000 0.687500
vt 0.687500 0.750000
vt 0.687500 0.687500
vt 0.687500 0.562500
vt 0.750000 0.625000
vt 0.687500 0.625000
vt 0.875000 0.562500
vt 0.812500 0.625000
vt 0.812500 0.562500
vt 0.750000 0.562500
vt 0.750000 0.500000
vt 0.875000 0.500000
vt 0.812500 0.500000
vt 0.625000 0.562500
vt 0.625000 0.625000
vt 0.687500 0.500000
vt 0.625000 0.500000
vt 0.625000 0.750000
vt 0.750000 0.750000
vt 0.875000 0.625000
vt 0.250000 0.718750
vt 0.218750 0.750000
vt 0.218750 0.718750
vt 0.250000 0.593750
vt 0.218750 0.625000
vt 0.218750 0.593750
vt 0.375000 0.593750
vt 0.343750 0.625000
vt 0.343750 0.593750
vt 0.312500 0.593750
vt 0.281250 0.625000
vt 0.281250 0.593750
vt 0.312500 0.531250
vt 0.281250 0.562500
vt 0.281250 0.531250
vt 0.375000 0.531250
vt 0.343750 0.562500
vt 0.343750 0.531250
vt 0.187500 0.593750
vt 0.156250 0.625000
vt 0.156250 0.593750
vt 0.187500 0.531250
vt 0.156250 0.562500
vt 0.156250 0.531250
vt 0.250000 0.531250
vt 0.218750 0.562500
vt 0.218750 0.531250
vt 0.187500 0.718750
vt 0.156250 0.750000
vt 0.156250 0.718750
vt 0.187500 0.656250
vt 0.156250 0.687500
vt 0.156250 0.656250
vt 0.250000 0.656250
vt 0.218750 0.687500
vt 0.218750 0.656250
vt 0.312500 0.718750
vt 0.281250 0.750000
vt 0.281250 0.718750
vt 0.312500 0.656250
vt 0.281250 0.687500
vt 0.281250 0.656250
vt 0.343750 0.687500
vt 0.343750 0.656250
vt 0.312500 0.687500
vt 0.312500 0.625000
vt 0.375000 0.625000
vt 0.250000 0.687500
vt 0.250000 0.625000
vt 0.250000 0.750000
vt 0.187500 0.687500
vt 0.187500 0.625000
vt 0.125000 0.687500
vt 0.125000 0.656250
vt 0.125000 0.625000
vt 0.125000 0.750000
vt 0.125000 0.718750
vt 0.187500 0.562500
vt 0.218750 0.500000
vt 0.187500 0.500000
vt 0.250000 0.500000
vt 0.125000 0.562500
vt 0.125000 0.531250
vt 0.156250 0.500000
vt 0.125000 0.500000
vt 0.125000 0.593750
vt 0.312500 0.562500
vt 0.343750 0.500000
vt 0.312500 0.500000
vt 0.375000 0.500000
vt 0.250000 0.562500
vt 0.281250 0.500000
vt 0.375000 0.562500
vt 0.187500 0.750000
vt 0.312500 0.750000
vt 0.375000 0.687500
vt 0.875000 0.750000
vt 0.375000 0.781250
vt 0.625000 0.812500
vt 0.625000 0.875000
vt 0.375000 0.843750
vt 0.375000 0.906250
vt 0.375000 0.812500
vt 0.375000 0.875000
vt 0.625000 1.000000
vt 0.375000 1.000000
vt 0.375000 0.031250
vt 0.375000 0.000000
vt 0.375000 0.093750
vt 0.625000 0.000000
vt 0.625000 0.062500
vt 0.625000 0.125000
vt 0.625000 0.187500
vt 0.375000 0.062500
vt 0.375000 0.187500
vt 0.375000 0.156250
vt 0.375000 0.250000
vt 0.375000 0.281250
vt 0.625000 0.312500
vt 0.625000 0.375000
vt 0.375000 0.343750
vt 0.375000 0.406250
vt 0.375000 0.312500
vt 0.375000 0.375000
vn 0.0000 1.0000 0.0000
vn 0.0000 0.0000 1.0000
vn -1.0000 0.0000 0.0000
vn 0.0000 -1.0000 0.0000
vn 1.0000 0.0000 0.0000
vn 0.0000 0.0000 -1.0000
vn -0.6918 0.2070 0.6918
vn -0.6918 0.2070 -0.6918
vn 0.5770 0.5781 0.5770
vn 0.6454 0.4086 -0.6454
vn 0.8068 0.5108 0.2970
vn 0.0000 -0.4843 0.8749
vn 0.0000 -0.4843 -0.8749
vn 0.6918 0.2070 0.6918
vn 0.6918 0.2070 -0.6918
vn 0.7064 0.7078 0.0000
s off
f 20/1/1 14/2/1 29/3/1
f 14/4/2 69/5/2 41/6/2
f 30/7/3 5/8/3 67/9/3
f 70/10/4 53/11/4 106/12/4
f 15/13/5 4/14/5 58/15/5
f 17/16/6 68/17/6 40/18/6
f 22/19/1 18/20/1 28/21/1
f 27/22/1 13/23/1 24/24/1
f 16/25/1 25/26/1 26/27/1
f 26/27/7 13/23/7 23/28/7
f 12/29/8 26/27/8 23/28/8
f 5/30/1 26/27/1 21/31/1
f 19/32/9 24/24/9 10/33/9
f 17/34/1 19/32/1 1/35/1
f 12/29/1 27/22/1 17/34/1
f 28/21/10 3/36/10 15/13/10
f 10/33/11 28/21/11 15/13/11
f 13/23/1 28/21/1 24/24/1
f 29/3/1 9/37/1 22/19/1
f 25/26/1 22/19/1 13/23/1
f 11/38/1 29/3/1 25/26/1
f 59/39/4 57/40/4 105/41/4
f 60/42/12 73/43/12 104/44/12
f 66/45/12 74/46/12 103/47/12
f 75/48/12 62/49/12 102/50/12
f 76/51/4 77/52/4 101/53/4
f 54/54/4 78/55/4 100/56/4
f 79/57/12 61/58/12 99/59/12
f 80/60/4 81/61/4 98/62/4
f 72/63/4 82/64/4 97/65/4
f 83/66/4 69/67/4 96/68/4
f 84/69/13 85/70/13 95/71/13
f 71/72/13 86/73/13 94/74/13
f 87/75/4 65/76/4 93/77/4
f 88/78/13 89/79/13 92/80/13
f 58/15/13 90/81/13 91/82/13
f 91/82/13 50/83/13 88/78/13
f 74/46/4 88/78/4 46/84/4
f 33/85/4 91/82/4 74/46/4
f 92/80/13 43/86/13 71/72/13
f 62/49/4 71/72/4 34/87/4
f 46/84/4 92/80/4 62/49/4
f 93/77/4 32/88/4 59/39/4
f 89/79/4 59/39/4 43/86/4
f 50/83/4 93/77/4 89/79/4
f 94/74/13 49/89/13 84/69/13
f 73/43/4 84/69/4 45/90/4
f 34/87/4 94/74/4 73/43/4
f 95/71/13 35/91/13 63/92/13
f 61/58/4 63/92/4 30/93/4
f 45/90/4 95/71/4 61/58/4
f 96/68/4 8/94/4 51/95/4
f 85/70/4 51/95/4 35/91/4
f 49/89/4 96/68/4 85/70/4
f 97/65/4 48/96/4 80/60/4
f 64/97/4 80/60/4 36/98/4
f 31/99/4 97/65/4 64/97/4
f 98/62/4 39/100/4 67/101/4
f 52/102/4 67/101/4 6/103/4
f 36/98/4 98/62/4 52/102/4
f 99/59/12 30/93/12 55/104/12
f 81/61/4 55/104/4 39/100/4
f 48/96/4 99/59/4 81/61/4
f 100/56/4 47/105/4 76/51/4
f 68/106/4 76/51/4 40/107/4
f 2/108/4 100/56/4 68/106/4
f 101/53/4 44/109/4 72/63/4
f 56/110/4 72/63/4 31/99/4
f 40/107/4 101/53/4 56/110/4
f 102/50/12 34/87/12 60/42/12
f 77/52/4 60/42/4 44/109/4
f 47/105/4 102/50/4 77/52/4
f 103/47/12 46/84/12 75/48/12
f 78/55/4 75/48/4 47/105/4
f 38/111/4 103/47/4 78/55/4
f 104/44/12 45/90/12 79/57/12
f 82/64/4 79/57/4 48/96/4
f 44/109/4 104/44/4 82/64/4
f 105/41/4 41/112/4 83/66/4
f 86/73/4 83/66/4 49/89/4
f 43/86/4 105/41/4 86/73/4
f 106/12/4 37/113/4 87/75/4
f 90/81/4 87/75/4 50/83/4
f 42/114/4 106/12/4 90/81/4
f 20/1/1 7/115/1 14/2/1
f 53/116/2 4/14/2 3/36/2
f 18/117/2 9/118/2 65/119/2
f 9/118/2 14/4/2 57/120/2
f 18/117/2 65/119/2 37/121/2
f 53/116/2 3/36/2 18/117/2
f 32/122/2 65/119/2 9/118/2
f 32/122/2 9/118/2 57/120/2
f 37/121/2 53/116/2 18/117/2
f 14/4/2 7/123/2 69/5/2
f 7/123/2 8/124/2 69/5/2
f 41/6/2 57/120/2 14/4/2
f 51/125/3 8/126/3 63/127/3
f 8/126/3 7/128/3 63/127/3
f 20/129/3 11/130/3 63/127/3
f 11/130/3 16/131/3 30/7/3
f 7/128/3 20/129/3 63/127/3
f 63/127/3 35/132/3 51/125/3
f 39/133/3 55/134/3 30/7/3
f 67/9/3 39/133/3 30/7/3
f 30/7/3 63/127/3 11/130/3
f 16/131/3 5/8/3 30/7/3
f 5/8/3 6/135/3 67/9/3
f 70/10/4 4/14/4 53/11/4
f 54/54/5 2/108/5 1/35/5
f 1/35/5 19/32/5 10/33/5
f 15/13/5 3/36/5 4/14/5
f 1/35/5 10/33/5 54/54/5
f 10/33/5 15/13/5 33/85/5
f 33/85/5 15/13/5 58/15/5
f 38/111/5 54/54/5 33/85/5
f 33/85/5 54/54/5 10/33/5
f 33/85/5 66/45/5 38/111/5
f 70/10/5 42/114/5 58/15/5
f 4/14/5 70/10/5 58/15/5
f 52/136/6 6/135/6 5/8/6
f 21/137/6 12/138/6 64/139/6
f 12/138/6 17/16/6 56/140/6
f 21/137/6 64/139/6 36/141/6
f 52/136/6 5/8/6 21/137/6
f 31/142/6 64/139/6 12/138/6
f 31/142/6 12/138/6 56/140/6
f 36/141/6 52/136/6 21/137/6
f 17/16/6 1/35/6 68/17/6
f 1/35/6 2/108/6 68/17/6
f 40/18/6 56/140/6 17/16/6
f 22/19/1 9/37/1 18/20/1
f 27/22/14 23/28/14 13/23/14
f 16/25/1 11/38/1 25/26/1
f 26/27/1 25/26/1 13/23/1
f 12/29/1 21/31/1 26/27/1
f 5/30/1 16/25/1 26/27/1
f 19/32/1 27/22/1 24/24/1
f 17/34/1 27/22/1 19/32/1
f 12/29/15 23/28/15 27/22/15
f 28/21/1 18/20/1 3/36/1
f 10/33/16 24/24/16 28/21/16
f 13/23/1 22/19/1 28/21/1
f 29/3/1 14/2/1 9/37/1
f 25/26/1 29/3/1 22/19/1
f 11/38/1 20/1/1 29/3/1
f 59/39/4 32/88/4 57/40/4
f 60/42/12 34/87/12 73/43/12
f 66/45/12 33/85/12 74/46/12
f 75/48/12 46/84/12 62/49/12
f 76/51/4 47/105/4 77/52/4
f 54/54/4 38/111/4 78/55/4
f 79/57/12 45/90/12 61/58/12
f 80/60/4 48/96/4 81/61/4
f 72/63/4 44/109/4 82/64/4
f 83/66/4 41/112/4 69/67/4
f 84/69/13 49/89/13 85/70/13
f 71/72/13 43/86/13 86/73/13
f 87/75/4 37/113/4 65/76/4
f 88/78/13 50/83/13 89/79/13
f 58/15/13 42/114/13 90/81/13
f 91/82/13 90/81/13 50/83/13
f 74/46/4 91/82/4 88/78/4
f 33/85/4 58/15/4 91/82/4
f 92/80/13 89/79/13 43/86/13
f 62/49/4 92/80/4 71/72/4
f 46/84/4 88/78/4 92/80/4
f 93/77/4 65/76/4 32/88/4
f 89/79/4 93/77/4 59/39/4
f 50/83/4 87/75/4 93/77/4
f 94/74/13 86/73/13 49/89/13
f 73/43/4 94/74/4 84/69/4
f 34/87/4 71/72/4 94/74/4
f 95/71/13 85/70/13 35/91/13
f 61/58/4 95/71/4 63/92/4
f 45/90/4 84/69/4 95/71/4
f 96/68/4 69/67/4 8/94/4
f 85/70/4 96/68/4 51/95/4
f 49/89/4 83/66/4 96/68/4
f 97/65/4 82/64/4 48/96/4
f 64/97/4 97/65/4 80/60/4
f 31/99/4 72/63/4 97/65/4
f 98/62/4 81/61/4 39/100/4
f 52/102/4 98/62/4 67/101/4
f 36/98/4 80/60/4 98/62/4
f 99/59/12 61/58/12 30/93/12
f 81/61/4 99/59/4 55/104/4
f 48/96/4 79/57/4 99/59/4
f 100/56/4 78/55/4 47/105/4
f 68/106/4 100/56/4 76/51/4
f 2/108/4 54/54/4 100/56/4
f 101/53/4 77/52/4 44/109/4
f 56/110/4 101/53/4 72/63/4
f 40/107/4 76/51/4 101/53/4
f 102/50/12 62/49/12 34/87/12
f 77/52/4 102/50/4 60/42/4
f 47/105/4 75/48/4 102/50/4
f 103/47/12 74/46/12 46/84/12
f 78/55/4 103/47/4 75/48/4
f 38/111/4 66/45/4 103/47/4
f 104/44/12 73/43/12 45/90/12
f 82/64/4 104/44/4 79/57/4
f 44/109/4 60/42/4 104/44/4
f 105/41/4 57/40/4 41/112/4
f 86/73/4 105/41/4 83/66/4
f 43/86/4 59/39/4 105/41/4
f 106/12/4 53/11/4 37/113/4
f 90/81/4 106/12/4 87/75/4
f 42/114/4 70/10/4 106/12/4
